<svg xmlns="http://www.w3.org/2000/svg" viewBox="0 0 100 100" width="100" height="100">
  <!-- Background rounded rectangle -->
  <rect x="5" y="5" width="90" height="90" rx="12" fill="#1e3a6e"/>

  <!-- S shape / compass design -->
  <path d="M50 20 C35 20 25 30 25 42 C25 52 32 58 45 62 C52 64 55 68 55 73 C55 78 51 82 45 82 C39 82 35 78 35 73"
        stroke="white" stroke-width="6" fill="none" stroke-linecap="round"/>
  <path d="M50 80 C65 80 75 70 75 58 C75 48 68 42 55 38 C48 36 45 32 45 27 C45 22 49 18 55 18 C61 18 65 22 65 27"
        stroke="white" stroke-width="6" fill="none" stroke-linecap="round"/>

  <!-- Compass needle / arrow pointing up-right -->
  <polygon points="70,25 78,33 52,48 60,22" fill="#e5a01a"/>

  <!-- Small dot at center -->
  <circle cx="50" cy="50" r="4" fill="#e5a01a"/>
</svg>
